<?xml version="1.0" encoding="UTF-8" standalone="no"?>
<svg
   height="280"
   version="1.1"
   viewBox="0 0 1100 280"
   width="1100"
   id="svg3"
   xmlns="http://www.w3.org/2000/svg"
   xmlns:svg="http://www.w3.org/2000/svg">
  <defs
     id="defs1" />
  <path
     d="m 83.296875,168.5 h 31.113285 v -53.67041 c 0,-5.3584 -0.0864,-15.98877 -0.51856,-28.520508 6.65479,12.099609 12.79102,22.643558 16.50733,28.606938 L 163.93213,168.5 h 32.23682 V 39.725586 h -31.11329 v 55.831055 c 0,5.790529 0.17286,16.248049 0.43213,26.446289 -5.01269,-9.24756 -10.45752,-18.92725 -13.48242,-23.76709 L 115.44727,39.725586 H 83.296875 Z m 132.465825,0 h 95.93261 v -26.44629 h -64.81933 v -25.40918 h 59.89306 V 90.976074 H 246.87598 V 66.171875 h 64.81933 V 39.725586 H 215.7627 Z"
     id="text1"
     style="font-weight:800;font-size:177px;font-family:'Inter Display';letter-spacing:3;fill:#0b1f3a"
     transform="matrix(0.95,0,0,1,3.74775,0)"
     aria-label="NE" />
  <polygon
     fill="#0B1F3A"
     points="321.54999999999995,41.0 348.54999999999995,41.0 429.54999999999995,173.0 402.54999999999995,173.0"
     id="polygon1" />
  <polygon
     fill="#0B1F3A"
     points="402.54999999999995,41.0 429.54999999999995,41.0 348.54999999999995,173.0 321.54999999999995,173.0"
     id="polygon2" />
  <path
     d="m 538.79993,170.57422 c 34.74316,0 61.53515,-24.4585 61.53515,-66.375 0,-42.002931 -26.79199,-66.547853 -61.53515,-66.547853 -34.91602,0 -61.62159,24.544922 -61.62159,66.547853 0,41.74365 26.70557,66.375 61.62159,66.375 z m 0,-27.1377 c -18.49512,0 -30.33545,-14.34668 -30.33545,-39.2373 0,-24.977052 11.84033,-39.410158 30.33545,-39.410158 18.40869,0 30.24902,14.433106 30.24902,39.410158 0,24.89062 -11.84033,39.2373 -30.24902,39.2373 z M 616.1261,168.5 h 31.11328 v -42.78076 h 20.05078 L 688.29163,168.5 h 32.84179 l -24.71777,-49.08984 c 13.48242,-7.00049 21.34717,-19.618656 21.34717,-36.12598 0,-26.705567 -18.7544,-43.558594 -48.57129,-43.558594 H 616.1261 Z m 31.11328,-67.23926 V 65.221191 h 19.7915 c 12.53174,0 20.31006,7.086914 20.31006,18.062989 0,10.889648 -7.77832,17.97656 -20.22363,17.97656 z M 727.67688,168.5 h 33.79248 l 7.86475,-24.8042 h 45.71923 l 7.60547,24.8042 h 34.74317 L 812.8927,39.725586 h -40.96582 z m 49.43555,-49.08984 2.33349,-7.51905 c 4.49414,-14.346676 8.64258,-28.434079 13.0503,-44.249997 4.32128,15.815918 8.46972,29.903321 12.70459,44.249997 l 2.33349,7.51905 z"
     id="text2"
     style="font-weight:800;font-size:177px;font-family:'Inter Display';letter-spacing:3;fill:#0b1f3a"
     transform="scale(0.95,1)"
     aria-label="ORA" />
  <path
     d="m 419.02275,235.58105 c 10.48804,0 18.07081,-6.85644 18.07081,-17.80932 v -4.96802 h -17.08301 v 5.46191 h 10.60425 c -0.14527,6.91456 -4.70655,11.27247 -11.56299,11.27247 -7.64087,0 -13.16089,-5.75245 -13.16089,-16.18238 0,-10.45898 5.60718,-16.18237 12.89941,-16.18237 5.69434,0 9.55835,3.16675 11.1272,8.22192 h 6.79834 c -1.45264,-8.42529 -8.65771,-14.26489 -17.98364,-14.26489 -11.21436,0 -19.40723,8.42529 -19.40723,22.2544 0,13.68383 7.9314,22.19628 19.69775,22.19628 z M 469.57827,235 h 6.62403 v -16.35669 h 8.83203 c 0.11621,0 0.26147,0 0.37768,0 L 494.18594,235 h 7.52466 l -9.5293,-17.48975 c 5.25855,-1.97558 7.90234,-6.3916 7.90234,-12.20214 0,-7.98951 -4.96801,-13.59668 -14.99121,-13.59668 h -15.51416 z m 6.62403,-22.02197 v -15.60132 h 8.13476 c 6.3916,0 9.0354,3.05054 9.0354,7.9314 0,4.8518 -2.6438,7.66992 -8.97729,7.66992 z m 74.23349,22.60302 c 11.21436,0 19.49439,-8.36718 19.49439,-22.19628 0,-13.88721 -8.28003,-22.2544 -19.49439,-22.2544 -11.2434,0 -19.55249,8.36719 -19.55249,22.2544 0,13.8291 8.30909,22.19628 19.55249,22.19628 z m 0,-6.04296 c -7.4375,0 -12.98657,-5.69434 -12.98657,-16.15332 0,-10.48804 5.54907,-16.21143 12.98657,-16.21143 7.3794,0 12.92847,5.69434 12.92847,16.21143 0,10.45898 -5.54907,16.15332 -12.92847,16.15332 z m 69.09116,6.13012 c 10.34277,0 17.19922,-6.4497 17.19922,-15.54321 v -28.41357 h -6.65308 V 219.573 c 0,5.8396 -4.03833,10.0813 -10.54614,10.0813 -6.53686,0 -10.6333,-4.2417 -10.6333,-10.0813 v -27.86157 h -6.62402 V 220.125 c 0,9.09351 6.82739,15.54321 17.25732,15.54321 z M 670.57637,235 h 6.62403 v -15.16553 h 8.83203 c 10.05224,0 15.04932,-6.07202 15.04932,-14.06152 0,-7.9895 -4.96802,-14.06152 -14.99122,-14.06152 h -15.51416 z m 6.62403,-20.77271 v -16.85058 h 8.13476 c 6.42066,0 9.0354,3.51538 9.0354,8.39624 0,4.88086 -2.61474,8.45434 -8.97729,8.45434 z"
     id="text3"
     style="font-weight:500;font-size:59.5px;font-family:Inter;letter-spacing:4.2;text-anchor:middle;fill:#64707f"
     aria-label="G R O U P" />
</svg>
